<!DOCTYPE svg PUBLIC "-//W3C//DTD SVG 1.1//EN" "http://www.w3.org/Graphics/SVG/1.1/DTD/svg11.dtd">
<!-- Uploaded to: SVG Repo, www.svgrepo.com, Transformed by: SVG Repo Mixer Tools -->
<svg width="256px" height="256px" viewBox="0 0 24 24" xmlns="http://www.w3.org/2000/svg" fill="#000000" stroke="#000000" stroke-width="0.00024000000000000003">
<g id="SVGRepo_bgCarrier" stroke-width="0"/>
<g id="SVGRepo_tracerCarrier" stroke-linecap="round" stroke-linejoin="round"/>
<g id="SVGRepo_iconCarrier">
<path fill="none" d="M6 8c0 1.178.822 2 2 2s2-.822 2-2-.822-2-2-2-2 .822-2 2z"/>
<path d="m20.294 8.292-4.3 4.292-1.292-1.292-1.414 1.414 2.706 2.704 5.712-5.702zM4 8c0 2.28 1.72 4 4 4s4-1.72 4-4-1.72-4-4-4-4 1.72-4 4zm6 0c0 1.178-.822 2-2 2s-2-.822-2-2 .822-2 2-2 2 .822 2 2zM4 18c0-1.654 1.346-3 3-3h2c1.654 0 3 1.346 3 3v1h2v-1c0-2.757-2.243-5-5-5H7c-2.757 0-5 2.243-5 5v1h2v-1z"/>
</g>
</svg>